<svg xmlns="http://www.w3.org/2000/svg" viewBox="0 0 1200 900" role="img" aria-labelledby="title desc">
  <title id="title">Fingerprint attendance system</title>
  <desc id="desc">Biometric attendance terminal with fingerprint pad.</desc>
  <rect width="1200" height="900" fill="#eef2f3"/>
  <rect x="355" y="135" width="490" height="650" rx="44" fill="#111827"/>
  <rect x="405" y="195" width="390" height="218" rx="20" fill="#f8fafc"/>
  <rect x="452" y="240" width="158" height="24" rx="12" fill="#1f8a70"/>
  <rect x="452" y="294" width="255" height="18" rx="9" fill="#cbd5e1"/>
  <rect x="452" y="338" width="210" height="18" rx="9" fill="#cbd5e1"/>
  <rect x="430" y="475" width="140" height="170" rx="24" fill="#26364a"/>
  <rect x="630" y="475" width="140" height="170" rx="24" fill="#26364a"/>
  <path d="M688 524c-36 26-44 84-6 122" fill="none" stroke="#1f8a70" stroke-width="14" stroke-linecap="round"/>
  <path d="M704 546c-14 18-16 48 2 70" fill="none" stroke="#1f8a70" stroke-width="10" stroke-linecap="round"/>
  <g fill="#ffffff">
    <rect x="455" y="505" width="34" height="24" rx="7"/>
    <rect x="510" y="505" width="34" height="24" rx="7"/>
    <rect x="455" y="555" width="34" height="24" rx="7"/>
    <rect x="510" y="555" width="34" height="24" rx="7"/>
  </g>
</svg>
