<svg xmlns="http://www.w3.org/2000/svg" viewBox="0 0 1200 900" role="img" aria-labelledby="title desc">
  <title id="title">POS machine combo</title>
  <desc id="desc">Illustration of a POS terminal, receipt printer, scanner, and cash drawer.</desc>
  <rect width="1200" height="900" fill="#eaf3f0"/>
  <rect x="185" y="610" width="830" height="110" rx="16" fill="#13212f"/>
  <rect x="270" y="190" width="430" height="330" rx="28" fill="#111827"/>
  <rect x="306" y="226" width="358" height="220" rx="12" fill="#f8fafc"/>
  <rect x="336" y="256" width="132" height="24" rx="12" fill="#1f8a70"/>
  <rect x="336" y="304" width="268" height="18" rx="9" fill="#cbd5e1"/>
  <rect x="336" y="342" width="220" height="18" rx="9" fill="#cbd5e1"/>
  <rect x="402" y="520" width="168" height="90" rx="12" fill="#26364a"/>
  <rect x="734" y="338" width="205" height="150" rx="22" fill="#ffffff" stroke="#111827" stroke-width="18"/>
  <path d="M770 330h132l-18-72H788z" fill="#dbeafe" stroke="#111827" stroke-width="14"/>
  <rect x="764" y="515" width="176" height="60" rx="12" fill="#2d6cdf"/>
  <rect x="190" y="515" width="120" height="42" rx="12" fill="#d45113"/>
  <path d="M180 478l110-56 34 68-110 56z" fill="#ffffff" stroke="#111827" stroke-width="14"/>
  <circle cx="836" cy="410" r="24" fill="#1f8a70"/>
</svg>
